<svg width="50" height="50" viewBox="0 0 50 50" fill="none" xmlns="http://www.w3.org/2000/svg">
<path d="M43.9679 4.61176V3.42781C43.9655 2.51943 43.6036 1.64895 42.9613 1.00663C42.319 0.364313 41.4485 0.00239957 40.5401 0C39.6313 0.000990835 38.76 0.362452 38.1174 1.00508C37.4748 1.6477 37.1133 2.519 37.1123 3.42781V4.55615H33.6043V3.42781C33.6043 2.51962 33.2439 1.64856 32.6022 1.00587C31.9605 0.363185 31.09 0.00141683 30.1818 0C29.2731 0.00113206 28.4018 0.362639 27.7592 1.00523C27.1166 1.64783 26.7551 2.51904 26.754 3.42781V4.55615H23.246V3.42781C23.246 2.97801 23.1574 2.53262 22.9853 2.11707C22.8131 1.70151 22.5608 1.32393 22.2428 1.00587C21.9247 0.687819 21.5472 0.435526 21.1316 0.263397C20.716 0.0912676 20.2706 0.00267335 19.8209 0.00267335C19.3711 0.00267335 18.9257 0.0912676 18.5101 0.263397C18.0946 0.435526 17.717 0.687819 17.3989 1.00587C17.0809 1.32393 16.8286 1.70151 16.6564 2.11707C16.4843 2.53262 16.3957 2.97801 16.3957 3.42781V4.55615H12.8877V3.42781C12.8853 2.51943 12.5234 1.64895 11.8811 1.00663C11.2387 0.364313 10.3683 0.00239957 9.45989 0C8.55113 0.00113206 7.67991 0.362639 7.03732 1.00523C6.39472 1.64783 6.03322 2.51904 6.03209 3.42781V4.61176C4.36933 4.8168 2.83871 5.62208 1.72792 6.87625C0.617128 8.13042 0.00265698 9.74711 0 11.4225V43.1337C0.00212293 44.9541 0.726217 46.6993 2.01344 47.9866C3.30066 49.2738 5.0459 49.9979 6.86631 50H43.1337C44.9541 49.9979 46.6993 49.2738 47.9866 47.9866C49.2738 46.6993 49.9979 44.9541 50 43.1337V11.4225C49.9973 9.74711 49.3829 8.13042 48.2721 6.87625C47.1613 5.62208 45.6307 4.8168 43.9679 4.61176ZM38.984 3.42781C38.9845 3.01526 39.1487 2.61978 39.4404 2.32807C39.7321 2.03636 40.1276 1.87222 40.5401 1.87166C40.952 1.87418 41.3464 2.03894 41.6377 2.33023C41.929 2.62152 42.0937 3.01587 42.0963 3.42781V7.55615C42.0963 7.96887 41.9323 8.36468 41.6405 8.65651C41.3486 8.94835 40.9528 9.1123 40.5401 9.1123C40.1274 9.1123 39.7316 8.94835 39.4397 8.65651C39.1479 8.36468 38.984 7.96887 38.984 7.55615V3.42781ZM28.6257 3.42781C28.6261 3.01522 28.7902 2.61966 29.0819 2.32791C29.3737 2.03617 29.7692 1.87208 30.1818 1.87166C30.5937 1.87293 30.9882 2.03746 31.2789 2.32917C31.5696 2.62089 31.7328 3.01597 31.7326 3.42781V7.55615C31.7326 7.96816 31.5689 8.36329 31.2776 8.65462C30.9863 8.94596 30.5912 9.10962 30.1791 9.10962C29.7671 9.10962 29.372 8.94596 29.0807 8.65462C28.7893 8.36329 28.6257 7.96816 28.6257 7.55615V3.42781ZM18.2674 3.42781C18.2674 3.0158 18.431 2.62067 18.7224 2.32933C19.0137 2.038 19.4088 1.87433 19.8209 1.87433C20.2329 1.87433 20.628 2.038 20.9193 2.32933C21.2107 2.62067 21.3743 3.0158 21.3743 3.42781V7.55615C21.3743 7.96816 21.2107 8.36329 20.9193 8.65462C20.628 8.94596 20.2329 9.10962 19.8209 9.10962C19.4088 9.10962 19.0137 8.94596 18.7224 8.65462C18.431 8.36329 18.2674 7.96816 18.2674 7.55615V3.42781ZM7.90374 3.42781C7.90417 3.01522 8.06826 2.61966 8.36 2.32791C8.65174 2.03617 9.04731 1.87208 9.45989 1.87166C9.87183 1.87418 10.2662 2.03894 10.5575 2.33023C10.8488 2.62152 11.0135 3.01587 11.016 3.42781V7.55615C11.016 7.96887 10.8521 8.36468 10.5603 8.65651C10.2684 8.94835 9.87261 9.1123 9.45989 9.1123C9.04718 9.1123 8.65136 8.94835 8.35953 8.65651C8.06769 8.36468 7.90374 7.96887 7.90374 7.55615V3.42781ZM6.03209 6.50321V7.55615C6.03209 8.46526 6.39323 9.33714 7.03607 9.97998C7.67891 10.6228 8.55078 10.984 9.45989 10.984C10.369 10.984 11.2409 10.6228 11.8837 9.97998C12.5266 9.33714 12.8877 8.46526 12.8877 7.55615V6.42781H16.3957V7.55615C16.3957 8.46455 16.7566 9.33575 17.3989 9.97808C18.0413 10.6204 18.9125 10.9813 19.8209 10.9813C20.7293 10.9813 21.6005 10.6204 22.2428 9.97808C22.8851 9.33575 23.246 8.46455 23.246 7.55615V6.42781H26.754V7.55615C26.754 8.46455 27.1149 9.33575 27.7572 9.97808C28.3995 10.6204 29.2707 10.9813 30.1791 10.9813C31.0875 10.9813 31.9587 10.6204 32.6011 9.97808C33.2434 9.33575 33.6043 8.46455 33.6043 7.55615V6.42781H37.1123V7.55615C37.1123 8.46526 37.4734 9.33714 38.1163 9.97998C38.7591 10.6228 39.631 10.984 40.5401 10.984C41.4492 10.984 42.3211 10.6228 42.9639 9.97998C43.6068 9.33714 43.9679 8.46526 43.9679 7.55615V6.50321C45.1302 6.70097 46.1852 7.30316 46.9465 8.20341C47.7078 9.10366 48.1264 10.244 48.1283 11.423V14.2396H1.87166V11.4225C1.87375 10.2436 2.29241 9.10334 3.05369 8.20321C3.81498 7.30307 4.86989 6.70095 6.03209 6.50321ZM43.1337 48.1283H6.86631C5.54212 48.1268 4.27262 47.6001 3.33628 46.6637C2.39994 45.7274 1.87321 44.4579 1.87166 43.1337V16.1123H48.1283V43.1337C48.1268 44.4579 47.6001 45.7274 46.6637 46.6637C45.7274 47.6001 44.4579 48.1268 43.1337 48.1283Z" fill="#02768D"/>
<path d="M13.0665 20.7936H9.28792C8.63011 20.7944 7.99948 21.0561 7.53433 21.5213C7.06918 21.9864 6.80749 22.617 6.80664 23.2748V27.0535C6.80749 27.7113 7.06918 28.3419 7.53433 28.8071C7.99948 29.2722 8.63011 29.5339 9.28792 29.5347H13.0665C13.7243 29.5339 14.355 29.2722 14.8201 28.8071C15.2853 28.3419 15.547 27.7113 15.5478 27.0535V23.2748C15.547 22.617 15.2853 21.9864 14.8201 21.5213C14.355 21.0561 13.7243 20.7944 13.0665 20.7936ZM13.6762 27.0535C13.676 27.2151 13.6117 27.3701 13.4974 27.4844C13.3832 27.5987 13.2282 27.6629 13.0665 27.6631H9.28792C9.12628 27.6629 8.97131 27.5987 8.85701 27.4844C8.74271 27.3701 8.67844 27.2151 8.6783 27.0535V23.2748C8.67844 23.1132 8.74271 22.9582 8.85701 22.8439C8.97131 22.7296 9.12628 22.6654 9.28792 22.6652H13.0665C13.2282 22.6654 13.3832 22.7296 13.4974 22.8439C13.6117 22.9582 13.676 23.1132 13.6762 23.2748V27.0535Z" fill="#02768D"/>
<path d="M26.8888 20.7936H23.1102C22.4524 20.7944 21.8217 21.0561 21.3566 21.5213C20.8914 21.9864 20.6298 22.617 20.6289 23.2748V27.0535C20.6298 27.7113 20.8914 28.3419 21.3566 28.8071C21.8217 29.2722 22.4524 29.5339 23.1102 29.5347H26.8888C27.5466 29.5339 28.1772 29.2722 28.6424 28.8071C29.1075 28.3419 29.3692 27.7113 29.3701 27.0535V23.2748C29.3692 22.617 29.1075 21.9864 28.6424 21.5213C28.1772 21.0561 27.5466 20.7944 26.8888 20.7936ZM27.4984 27.0535C27.4983 27.2151 27.434 27.3701 27.3197 27.4844C27.2054 27.5987 27.0504 27.6629 26.8888 27.6631H23.1102C22.9486 27.6629 22.7936 27.5987 22.6793 27.4844C22.565 27.3701 22.5007 27.2151 22.5006 27.0535V23.2748C22.5007 23.1132 22.565 22.9582 22.6793 22.8439C22.7936 22.7296 22.9486 22.6654 23.1102 22.6652H26.8888C27.0504 22.6654 27.2054 22.7296 27.3197 22.8439C27.434 22.9582 27.4983 23.1132 27.4984 23.2748V27.0535Z" fill="#02768D"/>
<path d="M41.9251 22.0745L37.7272 26.2703L35.7186 24.2617C35.5421 24.0913 35.3057 23.997 35.0603 23.9992C34.815 24.0013 34.5803 24.0998 34.4068 24.2734C34.2333 24.4469 34.1349 24.6816 34.1328 24.927C34.1308 25.1724 34.2251 25.4088 34.3956 25.5852L37.0657 28.2553C37.1526 28.3423 37.2557 28.4113 37.3693 28.4583C37.4828 28.5054 37.6045 28.5296 37.7275 28.5296C37.8504 28.5296 37.9721 28.5054 38.0857 28.4583C38.1992 28.4113 38.3024 28.3423 38.3892 28.2553L43.2486 23.3959C43.4241 23.2204 43.5227 22.9824 43.5227 22.7342C43.5227 22.4859 43.4241 22.2479 43.2486 22.0724C43.0731 21.8969 42.835 21.7983 42.5868 21.7983C42.3386 21.7983 42.1006 21.8969 41.9251 22.0724V22.0745Z" fill="#02768D"/>
<path d="M13.0665 33.6844H9.28792C8.63011 33.6853 7.99948 33.947 7.53433 34.4121C7.06918 34.8773 6.80749 35.5079 6.80664 36.1657V39.9443C6.80749 40.6021 7.06918 41.2328 7.53433 41.6979C7.99948 42.1631 8.63011 42.4248 9.28792 42.4256H13.0665C13.7243 42.4248 14.355 42.1631 14.8201 41.6979C15.2853 41.2328 15.547 40.6021 15.5478 39.9443V36.1657C15.547 35.5079 15.2853 34.8773 14.8201 34.4121C14.355 33.947 13.7243 33.6853 13.0665 33.6844ZM13.6762 39.9443C13.676 40.106 13.6117 40.2609 13.4974 40.3752C13.3832 40.4895 13.2282 40.5538 13.0665 40.554H9.28792C9.12628 40.5538 8.97131 40.4895 8.85701 40.3752C8.74271 40.2609 8.67844 40.106 8.6783 39.9443V36.1657C8.67844 36.0041 8.74271 35.8491 8.85701 35.7348C8.97131 35.6205 9.12628 35.5562 9.28792 35.5561H13.0665C13.2282 35.5562 13.3832 35.6205 13.4974 35.7348C13.6117 35.8491 13.676 36.0041 13.6762 36.1657V39.9443Z" fill="#02768D"/>
<path d="M26.8888 33.6844H23.1102C22.4524 33.6853 21.8217 33.947 21.3566 34.4121C20.8914 34.8773 20.6298 35.5079 20.6289 36.1657V39.9443C20.6298 40.6021 20.8914 41.2328 21.3566 41.6979C21.8217 42.1631 22.4524 42.4248 23.1102 42.4256H26.8888C27.5466 42.4248 28.1772 42.1631 28.6424 41.6979C29.1075 41.2328 29.3692 40.6021 29.3701 39.9443V36.1657C29.3692 35.5079 29.1075 34.8773 28.6424 34.4121C28.1772 33.947 27.5466 33.6853 26.8888 33.6844ZM27.4984 39.9443C27.4983 40.106 27.434 40.2609 27.3197 40.3752C27.2054 40.4895 27.0504 40.5538 26.8888 40.554H23.1102C22.9486 40.5538 22.7936 40.4895 22.6793 40.3752C22.565 40.2609 22.5007 40.106 22.5006 39.9443V36.1657C22.5007 36.0041 22.565 35.8491 22.6793 35.7348C22.7936 35.6205 22.9486 35.5562 23.1102 35.5561H26.8888C27.0504 35.5562 27.2054 35.6205 27.3197 35.7348C27.434 35.8491 27.4983 36.0041 27.4984 36.1657V39.9443Z" fill="#02768D"/>
<path d="M40.712 33.6844H36.9334C36.2756 33.6853 35.645 33.947 35.1798 34.4121C34.7147 34.8773 34.453 35.5079 34.4521 36.1657V39.9443C34.453 40.6021 34.7147 41.2328 35.1798 41.6979C35.645 42.1631 36.2756 42.4248 36.9334 42.4256H40.712C41.3699 42.4248 42.0005 42.1631 42.4656 41.6979C42.9308 41.2328 43.1925 40.6021 43.1933 39.9443V36.1657C43.1925 35.5079 42.9308 34.8773 42.4656 34.4121C42.0005 33.947 41.3699 33.6853 40.712 33.6844ZM41.3217 39.9443C41.3215 40.106 41.2573 40.2609 41.143 40.3752C41.0287 40.4895 40.8737 40.5538 40.712 40.554H36.9334C36.7718 40.5538 36.6168 40.4895 36.5025 40.3752C36.3882 40.2609 36.3239 40.106 36.3238 39.9443V36.1657C36.3239 36.0041 36.3882 35.8491 36.5025 35.7348C36.6168 35.6205 36.7718 35.5562 36.9334 35.5561H40.712C40.8737 35.5562 41.0287 35.6205 41.143 35.7348C41.2573 35.8491 41.3215 36.0041 41.3217 36.1657V39.9443Z" fill="#02768D"/>
</svg>
