<svg width="130" height="30" viewBox="0 0 130 30" fill="none" xmlns="http://www.w3.org/2000/svg">
<path fill-rule="evenodd" clip-rule="evenodd" d="M15 0C17.7938 0.0318806 20.3177 0.718511 22.5718 2.05989C24.7989 3.37449 26.6516 5.23849 27.9526 7.47362C29.2858 9.74124 29.9683 12.2804 30.0001 15.0912C29.9209 18.9371 28.7079 22.2218 26.361 24.9454C24.0142 27.6691 21.0084 29.3541 17.8969 30V19.2174H20.8386L21.5039 14.9801H17.0494V12.2048C17.0247 11.6295 17.2067 11.0643 17.5624 10.6114C17.9186 10.1573 18.5459 9.91862 19.4443 9.89537H22.1342V6.18359C22.0956 6.17118 21.7294 6.12207 21.0355 6.03628C20.2486 5.94421 19.4573 5.89504 18.6651 5.88897C16.872 5.89724 15.4539 6.40304 14.4107 7.40637C13.3676 8.40942 12.8347 9.86061 12.8122 11.7599V14.9801H9.42231V19.2174H12.8122V30C8.99163 29.3541 5.98586 27.6691 3.63901 24.9454C1.29215 22.2218 0.0791891 18.9371 0 15.0912C0.0316829 12.2803 0.714163 9.74111 2.04744 7.47362C3.34846 5.23849 5.20114 3.37449 7.42831 2.05989C9.68229 0.718769 12.2062 0.0321389 15 0Z" fill="#001B43"/>
<path d="M65 0C62.0333 0 59.1332 0.879734 56.6665 2.52796C54.1997 4.17618 52.2771 6.51886 51.1418 9.25975C50.0065 12.0006 49.7094 15.0166 50.2882 17.9263C50.867 20.8361 52.2956 23.5088 54.3934 25.6066C56.4912 27.7044 59.1639 29.133 62.0736 29.7118C64.9834 30.2906 67.9994 29.9935 70.7402 28.8582C73.4811 27.7229 75.8238 25.8003 77.472 23.3335C79.1203 20.8668 80 17.9667 80 15C80 11.0217 78.4196 7.20644 75.6066 4.3934C72.7936 1.58035 68.9782 0 65 0ZM60.6382 22.8947H57.3658V12.3533H60.6382V22.8947ZM59 10.9145C58.6234 10.916 58.2548 10.8059 57.9408 10.598C57.6267 10.3901 57.3814 10.0938 57.2357 9.74647C57.0901 9.39917 57.0507 9.01648 57.1225 8.64678C57.1943 8.27707 57.3741 7.93696 57.6391 7.66941C57.9042 7.40187 58.2426 7.21892 58.6116 7.14368C58.9806 7.06843 59.3637 7.10428 59.7123 7.24669C60.061 7.3891 60.3596 7.63167 60.5704 7.94374C60.7812 8.25582 60.8948 8.62339 60.8967 9C60.8978 9.505 60.6988 9.98988 60.3434 10.3486C59.988 10.7074 59.505 10.9108 59 10.9145ZM72.8947 22.8947H69.6243V17.7632C69.6243 16.5395 69.6007 14.9704 67.923 14.9704C66.2454 14.9704 65.9493 16.3007 65.9493 17.6743V22.8947H62.6908V12.3533H65.8309V13.7901H65.8763C66.3125 12.9612 67.3803 12.0868 68.973 12.0868C72.2849 12.0868 72.8947 14.2697 72.8947 17.1039V22.8947Z" fill="#001B43"/>
<path d="M115 0C106.729 0 100 6.72903 100 15C100 23.2704 106.729 30 115 30C123.27 30 130 23.2704 130 15C130 6.72903 123.272 0 115 0ZM121.692 11.5669C121.698 11.7155 121.702 11.8654 121.702 12.0152C121.702 16.5776 118.23 21.8366 111.878 21.8366C109.928 21.8366 108.113 21.2668 106.586 20.2868C106.856 20.3188 107.131 20.3351 107.409 20.3351C109.027 20.3351 110.516 19.7829 111.697 18.8572C110.187 18.8295 108.911 17.8313 108.472 16.4592C108.682 16.499 108.899 16.5214 109.121 16.5214C109.436 16.5214 109.742 16.4803 110.031 16.4012C108.452 16.0845 107.262 14.6894 107.262 13.0158C107.262 13.0013 107.262 12.9862 107.263 12.9723C107.728 13.2303 108.26 13.3862 108.826 13.4037C107.9 12.7856 107.29 11.7282 107.29 10.5307C107.29 9.89749 107.46 9.30416 107.757 8.79421C109.459 10.8835 112.004 12.2575 114.873 12.4025C114.814 12.1494 114.784 11.8865 114.784 11.6152C114.784 9.70897 116.33 8.16281 118.236 8.16281C119.229 8.16281 120.125 8.58213 120.756 9.2528C121.544 9.09812 122.281 8.81173 122.95 8.41477C122.69 9.22138 122.144 9.89749 121.429 10.3253C122.128 10.2419 122.795 10.057 123.412 9.78208C122.952 10.4733 122.366 11.0817 121.692 11.5669Z" fill="#001B43"/>
</svg>
