<svg width="53" height="50" viewBox="0 0 53 50" fill="none" xmlns="http://www.w3.org/2000/svg">
<path d="M42.0153 29.413C42.4804 29.8779 43.2338 29.8777 43.699 29.413C45.8042 27.3077 45.8042 23.8822 43.699 21.777C43.2341 21.3121 42.4805 21.3121 42.0153 21.777C41.5504 22.2419 41.5504 22.9957 42.0153 23.4606C43.1922 24.6375 43.1922 26.5525 42.0153 27.7294C41.5503 28.1943 41.5503 28.9481 42.0153 29.413Z" fill="#02768D"/>
<path d="M47.3845 31.3909C49.071 29.7044 49.9998 27.4623 49.9998 25.0774C49.9998 20.1431 46.0064 16.1488 41.0712 16.1488C38.6863 16.1488 36.444 17.0775 34.7576 18.7639L26.7854 26.736V9.601C26.7854 4.67777 22.7801 0.672394 17.8568 0.672394C12.9336 0.672394 8.92822 4.67777 8.92822 9.601V32.2201C8.92822 36.5453 12.016 40.1842 16.1505 40.9833C16.1012 45.9702 20.1228 50 25.0768 50C27.4617 50 29.704 49.0712 31.3904 47.3848L40.2286 38.5466C46.2728 32.5025 38.1074 40.6683 47.3845 31.3909ZM36.4412 20.4475C38.9999 17.8887 43.1418 17.8882 45.7009 20.4475C48.2599 23.0063 48.2601 27.1481 45.7009 29.7072L39.3875 36.0206L30.1278 26.761L36.4412 20.4475ZM17.8568 3.05348C21.4672 3.05348 24.4045 5.99075 24.4045 9.60112V18.5297H11.3092V9.60112C11.3092 5.99075 14.2465 3.05348 17.8568 3.05348ZM11.3092 32.2201V20.9106H24.4045V29.1169L18.7635 34.7579C17.6711 35.8504 16.899 37.1767 16.489 38.6233C13.5156 37.993 11.3092 35.3517 11.3092 32.2201ZM29.7069 45.7014C28.4702 46.9379 26.8259 47.6191 25.077 47.6191C21.4586 47.6191 18.5293 44.6907 18.5293 41.0715C18.5293 39.323 19.2102 37.6786 20.4471 36.4416L28.4441 28.4445L37.7038 37.7042L29.7069 45.7014Z" fill="#02768D"/>
<path d="M3.57144 38.0954C1.60215 38.0954 0 39.6976 0 41.6669C0 43.6361 1.60215 45.2383 3.57144 45.2383C5.54073 45.2383 7.14288 43.6361 7.14288 41.6669C7.14288 39.6976 5.54073 38.0954 3.57144 38.0954ZM3.57144 42.8573C2.91501 42.8573 2.38096 42.3233 2.38096 41.6669C2.38096 41.0104 2.91501 40.4764 3.57144 40.4764C4.22787 40.4764 4.76192 41.0104 4.76192 41.6669C4.76192 42.3233 4.22787 42.8573 3.57144 42.8573Z" fill="#02768D"/>
<path d="M39.2858 9.52384C41.9116 9.52384 44.0478 7.38764 44.0478 4.76192C44.0478 2.1362 41.9116 0 39.2858 0C36.6601 0 34.5239 2.1362 34.5239 4.76192C34.5239 7.38764 36.6601 9.52384 39.2858 9.52384ZM39.2858 2.38096C40.5987 2.38096 41.6668 3.44906 41.6668 4.76192C41.6668 6.07478 40.5987 7.14288 39.2858 7.14288C37.973 7.14288 36.9049 6.07478 36.9049 4.76192C36.9049 3.44906 37.973 2.38096 39.2858 2.38096Z" fill="#02768D"/>
<path d="M48.8102 35.7145C46.8409 35.7145 45.2388 37.3167 45.2388 39.286C45.2388 41.2553 46.8409 42.8574 48.8102 42.8574C50.7795 42.8574 52.3817 41.2553 52.3817 39.286C52.3817 37.3167 50.7795 35.7145 48.8102 35.7145ZM48.8102 40.4765C48.1538 40.4765 47.6197 39.9424 47.6197 39.286C47.6197 38.6295 48.1538 38.0955 48.8102 38.0955C49.4666 38.0955 50.0007 38.6295 50.0007 39.286C50.0007 39.9424 49.4666 40.4765 48.8102 40.4765Z" fill="#02768D"/>
<path d="M3.57183 13.0955C4.22931 13.0955 4.76231 12.5625 4.76231 11.905C4.76231 11.2475 4.22931 10.7145 3.57183 10.7145C2.91434 10.7145 2.38135 11.2475 2.38135 11.905C2.38135 12.5625 2.91434 13.0955 3.57183 13.0955Z" fill="#02768D"/>
<path d="M40.4756 45.2384C41.1331 45.2384 41.6661 44.7054 41.6661 44.0479C41.6661 43.3904 41.1331 42.8574 40.4756 42.8574C39.8182 42.8574 39.2852 43.3904 39.2852 44.0479C39.2852 44.7054 39.8182 45.2384 40.4756 45.2384Z" fill="#02768D"/>
<path d="M46.4283 13.0955C47.0858 13.0955 47.6188 12.5625 47.6188 11.905C47.6188 11.2475 47.0858 10.7145 46.4283 10.7145C45.7708 10.7145 45.2378 11.2475 45.2378 11.905C45.2378 12.5625 45.7708 13.0955 46.4283 13.0955Z" fill="#02768D"/>
<path d="M11.9053 46.4282C12.5628 46.4282 13.0958 45.8952 13.0958 45.2377C13.0958 44.5802 12.5628 44.0472 11.9053 44.0472C11.2478 44.0472 10.7148 44.5802 10.7148 45.2377C10.7148 45.8952 11.2478 46.4282 11.9053 46.4282Z" fill="#02768D"/>
</svg>
