<svg width="49" height="52" viewBox="0 0 49 52" fill="none" xmlns="http://www.w3.org/2000/svg">
<path d="M37.5384 50.9995H12.0399C11.8505 50.9995 11.6688 50.9243 11.5349 50.7904C11.4009 50.6564 11.3257 50.4747 11.3257 50.2853V44.4928C11.3276 42.6464 12.0619 40.8762 13.3674 39.5707C14.673 38.2651 16.4432 37.5308 18.2896 37.5289H31.2888C33.1351 37.5308 34.9053 38.2651 36.2109 39.5707C37.5165 40.8762 38.2508 42.6464 38.2527 44.4928V50.2853C38.2527 50.4747 38.1774 50.6564 38.0435 50.7904C37.9095 50.9243 37.7278 50.9995 37.5384 50.9995ZM12.7542 49.5711H36.8242V44.4928C36.8223 43.0253 36.2385 41.6184 35.2008 40.5808C34.1631 39.5431 32.7563 38.9593 31.2888 38.9574H18.2896C16.8221 38.9593 15.4152 39.5431 14.3775 40.5808C13.3399 41.6184 12.7561 43.0253 12.7542 44.4928V49.5711Z" fill="#02768D" stroke="#02768D" stroke-width="0.5"/>
<path d="M24.7889 35.1436C23.3537 35.1436 21.9507 34.718 20.7573 33.9206C19.564 33.1232 18.6339 31.9899 18.0846 30.6639C17.5354 29.3379 17.3917 27.8788 17.6717 26.4712C17.9517 25.0635 18.6428 23.7705 19.6577 22.7556C20.6725 21.7407 21.9656 21.0496 23.3732 20.7696C24.7809 20.4896 26.24 20.6333 27.566 21.1825C28.892 21.7318 30.0253 22.6619 30.8227 23.8553C31.6201 25.0486 32.0457 26.4516 32.0457 27.8869C32.0438 29.8109 31.2786 31.6556 29.9181 33.0161C28.5576 34.3765 26.713 35.1417 24.7889 35.1436ZM24.7889 22.0586C23.6362 22.0586 22.5094 22.4005 21.551 23.0409C20.5925 23.6813 19.8455 24.5915 19.4044 25.6565C18.9632 26.7215 18.8478 27.8933 19.0727 29.0239C19.2976 30.1545 19.8527 31.193 20.6678 32.0081C21.4829 32.8231 22.5213 33.3782 23.6519 33.6031C24.7825 33.828 25.9543 33.7126 27.0193 33.2715C28.0843 32.8303 28.9945 32.0833 29.6349 31.1249C30.2754 30.1664 30.6172 29.0396 30.6172 27.8869C30.6153 26.3417 30.0006 24.8604 28.908 23.7678C27.8154 22.6752 26.3341 22.0605 24.7889 22.0586Z" fill="#02768D" stroke="#02768D" stroke-width="0.5"/>
<path d="M31.6241 51H17.9535C17.7641 51 17.5824 50.9248 17.4485 50.7908C17.3145 50.6569 17.2393 50.4752 17.2393 50.2858V46.3431C17.2393 46.1537 17.3145 45.972 17.4485 45.8381C17.5824 45.7042 17.7641 45.6289 17.9535 45.6289C18.1429 45.6289 18.3246 45.7042 18.4585 45.8381C18.5925 45.972 18.6677 46.1537 18.6677 46.3431V49.5715H30.9099V46.3431C30.9099 46.1537 30.9851 45.972 31.1191 45.8381C31.253 45.7042 31.4347 45.6289 31.6241 45.6289C31.8135 45.6289 31.9952 45.7042 32.1292 45.8381C32.2631 45.972 32.3384 46.1537 32.3384 46.3431V50.2858C32.3384 50.4752 32.2631 50.6569 32.1292 50.7908C31.9952 50.9248 31.8135 51 31.6241 51Z" fill="#02768D" stroke="#02768D" stroke-width="0.5"/>
<path d="M28.9026 15.0878C28.7863 15.0863 28.6717 15.0595 28.5669 15.0093L24.7885 13.0165L21.0102 15.0093C20.8914 15.0719 20.7573 15.0997 20.6234 15.0896C20.4895 15.0795 20.3611 15.0318 20.2531 14.9521C20.1436 14.8718 20.0592 14.762 20.0099 14.6355C19.9605 14.509 19.9483 14.3711 19.9745 14.2379L20.6888 10.031L17.6461 7.05972C17.5519 6.96674 17.4854 6.84941 17.454 6.72083C17.4226 6.59225 17.4275 6.45747 17.4683 6.33154C17.509 6.20561 17.584 6.09347 17.6847 6.00765C17.7855 5.92182 17.9081 5.86569 18.0389 5.84551L22.2672 5.23126L24.1457 1.40291C24.2042 1.28215 24.2955 1.18031 24.4092 1.10905C24.5229 1.03779 24.6543 1 24.7885 1C24.9227 1 25.0542 1.03779 25.1679 1.10905C25.2815 1.18031 25.3729 1.28215 25.4313 1.40291L27.3169 5.23126L31.5453 5.84551C31.6761 5.86569 31.7987 5.92182 31.8995 6.00765C32.0002 6.09347 32.0752 6.20561 32.1159 6.33154C32.1567 6.45747 32.1616 6.59225 32.1302 6.72083C32.0988 6.84941 32.0323 6.96674 31.9381 7.05972L28.8811 10.0453L29.5954 14.2522C29.6216 14.3854 29.6094 14.5233 29.5601 14.6498C29.5107 14.7763 29.4263 14.8861 29.3168 14.9664C29.1946 15.0486 29.0499 15.091 28.9026 15.0878ZM24.7885 11.5166C24.9036 11.5162 25.0168 11.5458 25.1171 11.6023L27.974 13.0879L27.4312 9.93812C27.4113 9.82331 27.4197 9.70535 27.4558 9.59455C27.4919 9.48375 27.5546 9.38346 27.6384 9.30244L29.9311 7.07401L26.767 6.60975C26.6486 6.59334 26.5362 6.54746 26.4401 6.47633C26.344 6.4052 26.2673 6.31109 26.217 6.20263L24.7885 3.34565L23.36 6.20263C23.3077 6.30617 23.2309 6.3954 23.1363 6.4626C23.0417 6.52981 22.9322 6.57295 22.8172 6.58832L19.6531 7.05258L21.9315 9.28102C22.0153 9.36204 22.078 9.46232 22.1141 9.57312C22.1502 9.68393 22.1586 9.80188 22.1387 9.91669L21.5959 13.0665L24.4528 11.5809C24.5552 11.5231 24.671 11.4935 24.7885 11.4952V11.5166Z" fill="#02768D" stroke="#02768D" stroke-width="0.5"/>
<path d="M45.3309 24.5728C45.2146 24.5714 45.1 24.5446 44.9952 24.4943L41.2168 22.523L37.4385 24.5086C37.3197 24.5712 37.1856 24.599 37.0517 24.5889C36.9178 24.5788 36.7894 24.5312 36.6814 24.4514C36.5719 24.3712 36.4875 24.2613 36.4381 24.1348C36.3888 24.0083 36.3766 23.8704 36.4028 23.7372L37.1171 19.5303L34.0744 16.5662C33.978 16.473 33.9097 16.3546 33.8774 16.2244C33.8452 16.0943 33.8502 15.9577 33.8919 15.8302C33.9336 15.7028 34.0104 15.5897 34.1134 15.5039C34.2164 15.418 34.3415 15.3629 34.4744 15.3448L38.7027 14.7306L40.5883 10.9022C40.6468 10.7815 40.7381 10.6796 40.8518 10.6084C40.9655 10.5371 41.0969 10.4993 41.2311 10.4993C41.3653 10.4993 41.4967 10.5371 41.6104 10.6084C41.7241 10.6796 41.8154 10.7815 41.8739 10.9022L43.7595 14.7306L47.9879 15.3448C48.1184 15.3672 48.2401 15.4255 48.3394 15.5131C48.4387 15.6007 48.5117 15.7142 48.5502 15.8409C48.5888 15.9677 48.5913 16.1026 48.5576 16.2306C48.5239 16.3587 48.4552 16.4749 48.3593 16.5662L45.3094 19.5731L46.0237 23.78C46.0492 23.9139 46.0358 24.0523 45.9852 24.1789C45.9346 24.3055 45.8488 24.4149 45.738 24.4943C45.613 24.5601 45.4714 24.5875 45.3309 24.5728ZM41.2168 21.0016C41.3313 20.9987 41.4446 21.0258 41.5454 21.0802L44.4023 22.5658L43.8595 19.416C43.8396 19.3012 43.848 19.1832 43.8841 19.0724C43.9202 18.9616 43.9829 18.8614 44.0667 18.7803L46.3594 16.5519L43.1881 16.0876C43.0744 16.0712 42.9663 16.0275 42.8731 15.9604C42.7798 15.8932 42.7041 15.8046 42.6524 15.7019L41.224 12.845L39.7955 15.7019C39.7431 15.8055 39.6663 15.8947 39.5718 15.9619C39.4772 16.0291 39.3677 16.0723 39.2526 16.0876L36.0886 16.5519L38.3598 18.7803C38.4436 18.8614 38.5063 18.9616 38.5424 19.0724C38.5785 19.1832 38.5869 19.3012 38.567 19.416L38.0241 22.5658L40.8811 21.0802C40.9849 21.027 41.1002 21 41.2168 21.0016Z" fill="#02768D" stroke="#02768D" stroke-width="0.5"/>
<path d="M12.4753 24.5728C12.359 24.5714 12.2445 24.5446 12.1396 24.4943L8.36128 22.523L4.58293 24.5086C4.46499 24.5697 4.33231 24.5968 4.19983 24.5867C4.06734 24.5766 3.9403 24.5298 3.83298 24.4514C3.72217 24.372 3.63638 24.2626 3.58576 24.136C3.53513 24.0095 3.52178 23.8711 3.54728 23.7372L4.26152 19.5303L1.21885 16.5662C1.12256 16.4735 1.05423 16.3556 1.0216 16.226C0.988979 16.0964 0.99338 15.9602 1.0343 15.833C1.07523 15.7057 1.15104 15.5925 1.2531 15.5062C1.35517 15.4199 1.47941 15.364 1.61168 15.3448L5.84 14.7306L7.72561 10.9022C7.78409 10.7815 7.87541 10.6796 7.9891 10.6084C8.10279 10.5371 8.23425 10.4993 8.36842 10.4993C8.5026 10.4993 8.63406 10.5371 8.74775 10.6084C8.86144 10.6796 8.95276 10.7815 9.01124 10.9022L10.8968 14.7306L15.1252 15.3448C15.2563 15.3662 15.3788 15.4237 15.479 15.5109C15.5793 15.598 15.6532 15.7114 15.6925 15.8383C15.7318 15.9652 15.735 16.1005 15.7017 16.2291C15.6683 16.3577 15.5998 16.4744 15.5037 16.5662L12.4539 19.5731L13.1681 23.78C13.186 23.8835 13.1808 23.9896 13.153 24.0908C13.1252 24.192 13.0754 24.2858 13.0073 24.3656C12.9391 24.4454 12.8541 24.5092 12.7585 24.5524C12.6628 24.5956 12.5588 24.6172 12.4539 24.6157L12.4753 24.5728ZM8.36128 21.0016C8.47792 21 8.59317 21.027 8.69698 21.0802L11.554 22.5658L11.0111 19.416C10.9912 19.3012 10.9996 19.1832 11.0357 19.0724C11.0718 18.9616 11.1345 18.8614 11.2183 18.7803L13.511 16.5519L10.3469 16.0876C10.2319 16.0723 10.1223 16.0291 10.0278 15.9619C9.93319 15.8947 9.8564 15.8055 9.80405 15.7019L8.37557 12.845L6.94708 15.7019C6.8954 15.8046 6.81972 15.8932 6.72647 15.9604C6.63321 16.0275 6.52513 16.0712 6.4114 16.0876L3.24016 16.5519L5.50431 18.7803C5.58807 18.8614 5.65074 18.9616 5.68684 19.0724C5.72295 19.1832 5.73139 19.3012 5.71144 19.416L5.16861 22.5658L8.02559 21.0802C8.1285 21.0246 8.24439 20.9975 8.36128 21.0016Z" fill="#02768D" stroke="#02768D" stroke-width="0.5"/>
</svg>
